<?xml version="1.0" ?><svg viewBox="0 0 32 32" xmlns="http://www.w3.org/2000/svg"><title/><g id="transition_conversion_convert_transfer_motion_split_slide" fill="currentColor"><path d="M14,19a1,1,0,0,0-1,1v4H4V8h9v4a1,1,0,0,0,2,0V7a1,1,0,0,0-1-1H3A1,1,0,0,0,2,7V25a1,1,0,0,0,1,1H14a1,1,0,0,0,1-1V20A1,1,0,0,0,14,19Z" fill="currentColor"/><path d="M29,6H18a1,1,0,0,0-1,1v5a1,1,0,0,0,2,0V8h9V24H19V20a1,1,0,0,0-2,0v5a1,1,0,0,0,1,1H29a1,1,0,0,0,1-1V7A1,1,0,0,0,29,6Z" fill="currentColor"/><path d="M7,16a1,1,0,0,0,1,1H22.59l-.3.29a1,1,0,0,0,0,1.42,1,1,0,0,0,1.42,0l2-2a1,1,0,0,0,0-1.42l-2-2a1,1,0,0,0-1.42,1.42l.3.29H8A1,1,0,0,0,7,16Z" fill="currentColor"/></g></svg>
